<?xml version="1.0" standalone="no"?><!DOCTYPE svg PUBLIC "-//W3C//DTD SVG 1.1//EN" "http://www.w3.org/Graphics/SVG/1.1/DTD/svg11.dtd"><svg t="1515514882009" class="icon" style="" viewBox="0 0 1024 1024" version="1.1" xmlns="http://www.w3.org/2000/svg" p-id="6375" xmlns:xlink="http://www.w3.org/1999/xlink" width="200" height="200"><defs><style type="text/css"></style></defs><path d="M20.016 512.003a491.987 491.987 0 1 0 983.974 0 491.987 491.987 0 1 0-983.974 0z" fill="#FDDF6D" p-id="6376"></path><path d="M617.431 931.356c-271.716 0-491.985-220.269-491.985-491.985 0-145.168 62.886-275.633 162.889-365.685C129.055 155.124 20.014 320.826 20.014 512c0 271.717 220.268 491.985 491.985 491.985 126.548 0 241.924-47.794 329.097-126.298-67.1 34.312-143.123 53.67-223.665 53.67z" fill="#FCC56B" p-id="6377"></path><path d="M366.269 359.705a60.044 60.044 0 1 0 120.088 0 60.044 60.044 0 1 0-120.088 0zM704.329 359.705a60.044 60.044 0 1 0 120.089 0 60.044 60.044 0 1 0-120.089 0z" fill="#FFFFFF" p-id="6378"></path><path d="M300.575 481.543c-36.536 0-66.159 29.618-66.159 66.158H366.73c0.004-36.54-29.618-66.158-66.154-66.158z m577.055-8.866c-36.536 0-66.158 29.618-66.158 66.156h132.312c0.002-36.534-29.616-66.156-66.154-66.156z" fill="#F9A880" p-id="6379"></path><path d="M715.161 780.224a20.01 20.01 0 0 1-17.504-10.28c-18.764-33.685-54.342-54.607-92.852-54.607-37.528 0-73.512 21.136-93.908 55.159-5.686 9.478-17.976 12.558-27.458 6.874s-12.558-17.979-6.874-27.459c27.59-46.018 76.73-74.606 128.244-74.606 53.02 0 102 28.8 127.818 75.16 5.38 9.658 1.914 21.847-7.744 27.227a19.94 19.94 0 0 1-9.722 2.532z" fill="#7F184C" p-id="6380"></path><path d="M750.475 58.816c-9.786-5.158-21.886-1.406-27.038 8.368-5.158 9.778-1.41 21.882 8.368 27.038C887.345 176.234 983.972 336.317 983.972 512c0 260.247-211.726 471.97-471.971 471.97S40.031 772.249 40.031 512 251.753 40.03 511.998 40.03c11.056 0 20.014-8.962 20.014-20.014S523.055 0 511.999 0C229.68 0 0 229.682 0 511.999s229.68 511.999 511.999 511.999 511.999-229.68 511.999-511.999c0.004-190.574-104.806-364.225-273.523-453.183z" fill="" p-id="6381"></path><path d="M506.387 359.713c0-44.144-35.914-80.058-80.058-80.058s-80.058 35.914-80.058 80.058 35.914 80.058 80.058 80.058 80.058-35.914 80.058-80.058z m-80.058 40.028c-22.072 0-40.03-17.958-40.03-40.03s17.958-40.03 40.03-40.03 40.03 17.958 40.03 40.03-17.958 40.03-40.03 40.03z m338.044 40.03c44.145 0 80.059-35.914 80.059-80.058s-35.914-80.058-80.059-80.058-80.058 35.914-80.058 80.058 35.914 80.058 80.058 80.058z m0-120.088c22.073 0 40.03 17.958 40.03 40.03s-17.957 40.03-40.03 40.03-40.03-17.958-40.03-40.03 17.956-40.03 40.03-40.03zM476.565 749.915c-5.684 9.478-2.608 21.775 6.874 27.459 9.482 5.684 21.77 2.604 27.458-6.874 20.398-34.025 56.382-55.159 93.908-55.159 38.51 0 74.092 20.924 92.852 54.607a20.012 20.012 0 0 0 27.226 7.748c9.658-5.38 13.124-17.569 7.744-27.227-25.822-46.36-74.798-75.16-127.818-75.16-51.512 0-100.652 28.588-128.244 74.606zM645.781 46.812a20.014 20.014 0 1 0 40.028 0 20.014 20.014 0 1 0-40.028 0z" fill="" p-id="6382"></path></svg>